<svg width="53" height="54" viewBox="0 0 53 54" fill="none" xmlns="http://www.w3.org/2000/svg">
<path d="M4.41675 15.25C4.41675 13.3644 4.41675 12.4216 5.00253 11.8358C5.58832 11.25 6.53113 11.25 8.41675 11.25H44.5834C46.469 11.25 47.4118 11.25 47.9976 11.8358C48.5834 12.4216 48.5834 13.3644 48.5834 15.25V21.5C48.5834 21.9714 48.5834 22.2071 48.437 22.3536C48.2905 22.5 48.0548 22.5 47.5834 22.5H5.41675C4.94534 22.5 4.70964 22.5 4.56319 22.3536C4.41675 22.2071 4.41675 21.9714 4.41675 21.5V15.25Z" fill="#222222"/>
<path d="M47.583 27C48.0542 27 48.2901 27.0002 48.4365 27.1465C48.583 27.2929 48.583 27.5286 48.583 28V45.5C48.583 47.3856 48.5829 48.3283 47.9971 48.9141C47.4113 49.4997 46.4685 49.5 44.583 49.5H8.41699C6.53155 49.5 5.58873 49.4997 5.00293 48.9141C4.41714 48.3283 4.41699 47.3856 4.41699 45.5V28C4.41699 27.5286 4.41703 27.2929 4.56348 27.1465C4.70993 27.0002 4.94576 27 5.41699 27H47.583ZM16.458 40.5C15.9868 40.5 15.7509 40.5001 15.6045 40.6465C15.4582 40.7929 15.458 41.0288 15.458 41.5V44C15.458 44.4712 15.4582 44.7071 15.6045 44.8535C15.7509 44.9999 15.9868 45 16.458 45H23.292C23.7632 45 23.9991 44.9999 24.1455 44.8535C24.2918 44.7071 24.292 44.4712 24.292 44V41.5C24.292 41.0288 24.2918 40.7929 24.1455 40.6465C23.9991 40.5001 23.7632 40.5 23.292 40.5H16.458ZM29.708 40.5C29.2368 40.5 29.0009 40.5001 28.8545 40.6465C28.7082 40.7929 28.708 41.0288 28.708 41.5V44C28.708 44.4712 28.7082 44.7071 28.8545 44.8535C29.0009 44.9999 29.2368 45 29.708 45H36.542C37.0132 45 37.2491 44.9999 37.3955 44.8535C37.5418 44.7071 37.542 44.4712 37.542 44V41.5C37.542 41.0288 37.5418 40.7929 37.3955 40.6465C37.2491 40.5001 37.0132 40.5 36.542 40.5H29.708ZM16.458 31.5C15.9868 31.5 15.7509 31.5001 15.6045 31.6465C15.4582 31.7929 15.458 32.0288 15.458 32.5V35C15.458 35.4712 15.4582 35.7071 15.6045 35.8535C15.7509 35.9999 15.9868 36 16.458 36H23.292C23.7632 36 23.9991 35.9999 24.1455 35.8535C24.2918 35.7071 24.292 35.4712 24.292 35V32.5C24.292 32.0288 24.2918 31.7929 24.1455 31.6465C23.9991 31.5001 23.7632 31.5 23.292 31.5H16.458ZM29.708 31.5C29.2368 31.5 29.0009 31.5001 28.8545 31.6465C28.7082 31.7929 28.708 32.0288 28.708 32.5V35C28.708 35.4712 28.7082 35.7071 28.8545 35.8535C29.0009 35.9999 29.2368 36 29.708 36H36.542C37.0132 36 37.2491 35.9999 37.3955 35.8535C37.5418 35.7071 37.542 35.4712 37.542 35V32.5C37.542 32.0288 37.5418 31.7929 37.3955 31.6465C37.2491 31.5001 37.0132 31.5 36.542 31.5H29.708Z" fill="#222222"/>
<path d="M15.4583 6.75L15.4583 13.5" stroke="#222222" stroke-width="2" stroke-linecap="round"/>
<path d="M37.5417 6.75L37.5417 13.5" stroke="#222222" stroke-width="2" stroke-linecap="round"/>
</svg>
