<svg width="255" height="251" viewBox="0 0 255 251" fill="none" xmlns="http://www.w3.org/2000/svg">
<path d="M53.125 41.8334L31.875 62.75" stroke="#222222" stroke-width="2" stroke-linecap="round"/>
<path d="M201.875 41.8334L223.125 62.75" stroke="#222222" stroke-width="2" stroke-linecap="round"/>
<path d="M127.5 41.833C174.444 41.833 212.5 79.2922 212.5 125.5C212.5 171.708 174.444 209.167 127.5 209.167C80.5558 209.167 42.5 171.708 42.5 125.5C42.5 79.2922 80.5558 41.833 127.5 41.833ZM149.381 98.5781C148.952 98.2299 148.322 98.2951 147.974 98.7236L127.293 124.168L96.1738 103.748C95.7121 103.445 95.0921 103.573 94.7891 104.035C94.4863 104.497 94.6146 105.117 95.0762 105.42L126.763 126.213C127.299 126.564 128.014 126.453 128.418 125.956L149.526 99.9854C149.875 99.5568 149.809 98.9265 149.381 98.5781Z" fill="#222222"/>
</svg>
