<svg width="53" height="54" viewBox="0 0 53 54" fill="none" xmlns="http://www.w3.org/2000/svg">
<path d="M26.5 11.1406C28.9507 11.1406 31.0083 12.9368 35.123 16.5303L37.3311 18.459C39.6076 20.4471 40.7464 21.4415 41.3525 22.7842C41.9585 24.1268 41.958 25.6543 41.958 28.709V38.25C41.958 42.4923 41.9584 44.6136 40.665 45.9316C39.3714 47.2497 37.2891 47.25 33.125 47.25H33.0215V36C33.0215 34.2229 31.6018 32.7502 29.8125 32.75H23.1875C21.3982 32.7502 19.9795 34.2229 19.9795 36V47.25H19.875C15.7109 47.25 13.6286 47.2497 12.335 45.9316C11.0416 44.6136 11.042 42.4923 11.042 38.25V28.709C11.042 25.6543 11.0415 24.1268 11.6475 22.7842C12.2536 21.4415 13.3924 20.4471 15.6689 18.459L17.877 16.5303C21.9917 12.9368 24.0493 11.1406 26.5 11.1406ZM29.8125 34.75C30.4622 34.7502 31.0215 35.2921 31.0215 36V47.25H21.9795V36C21.9795 35.2921 22.5378 34.7502 23.1875 34.75H29.8125Z" fill="#222222"/>
</svg>
