<svg width="323" height="416" viewBox="0 0 323 416" fill="none" xmlns="http://www.w3.org/2000/svg">
<rect x="225" y="238" width="31" height="24" rx="0.5" fill="#222222"/>
<rect x="176" y="238" width="31" height="24" rx="0.5" fill="#222222"/>
<rect x="121" y="238" width="31" height="24" rx="0.5" fill="#222222"/>
<rect x="67" y="238" width="31" height="24" rx="0.5" fill="#222222"/>
<rect x="176" y="196" width="31" height="24" rx="0.5" fill="#222222"/>
<rect x="225" y="196" width="31" height="24" rx="0.5" fill="#222222"/>
<rect x="121" y="196" width="31" height="24" rx="0.5" fill="#222222"/>
<path d="M116.125 119.312L116.125 167.812" stroke="#222222" stroke-linecap="round"/>
<path d="M201.875 119.312L201.875 167.812" stroke="#222222" stroke-linecap="round"/>
<rect x="67" y="196" width="31" height="24" rx="0.5" fill="#222222"/>
<rect x="225" y="322" width="31" height="24" rx="0.5" fill="#222222"/>
<rect x="176" y="322" width="31" height="24" rx="0.5" fill="#222222"/>
<rect x="121" y="322" width="31" height="24" rx="0.5" fill="#222222"/>
<rect x="67" y="322" width="31" height="24" rx="0.5" fill="#222222"/>
<rect x="176" y="280" width="31" height="24" rx="0.5" fill="#222222"/>
<rect x="225" y="280" width="31" height="24" rx="0.5" fill="#222222"/>
<rect x="121" y="280" width="31" height="24" rx="0.5" fill="#222222"/>
<rect x="67" y="280" width="31" height="24" rx="0.5" fill="#222222"/>
<rect x="40.375" y="104" width="242.25" height="260" rx="2" stroke="#222222"/>
<path d="M40.375 108C40.375 106.114 40.375 105.172 40.9608 104.586C41.5466 104 42.4894 104 44.375 104H278.625C280.511 104 281.453 104 282.039 104.586C282.625 105.172 282.625 106.114 282.625 108V173.333H40.375V108Z" fill="#222222"/>
<path d="M94.2085 52L94.2085 104" stroke="#222222" stroke-linecap="round"/>
<path d="M228.792 52L228.792 104" stroke="#222222" stroke-linecap="round"/>
</svg>
