<svg width="53" height="54" viewBox="0 0 53 54" fill="none" xmlns="http://www.w3.org/2000/svg">
<path fill-rule="evenodd" clip-rule="evenodd" d="M14.3541 36H35.3333C39.4973 36 41.5794 36 42.873 34.682C44.1666 33.364 44.1666 31.2426 44.1666 27V15.75C44.1666 11.5074 44.1666 9.38604 42.873 8.06802C41.5794 6.75 39.4973 6.75 35.3333 6.75H17.6666C13.5025 6.75 11.4205 6.75 10.1269 8.06802C8.83325 9.38604 8.83325 11.5074 8.83325 15.75V41.625C8.83325 38.5184 11.305 36 14.3541 36ZM35.1249 18C35.1249 16.8954 34.2295 16 33.1249 16L19.8749 16C18.7703 16 17.8749 16.8954 17.8749 18C17.8749 19.1046 18.7703 20 19.8749 20L33.1249 20C34.2295 20 35.1249 19.1046 35.1249 18Z" fill="#222222"/>
<path d="M42.873 34.682L42.1593 33.9815V33.9815L42.873 34.682ZM42.873 8.06802L42.1593 8.76849V8.76849L42.873 8.06802ZM33.1249 16V17V17V16ZM35.1249 18L36.1249 18V18H35.1249ZM19.8749 16V15V15V16ZM19.8749 20V19V19V20ZM33.1249 20V21V21V20ZM35.3333 36V35H14.3541V36V37H35.3333V36ZM42.873 34.682L42.1593 33.9815C41.7285 34.4205 41.1322 34.6954 40.0438 34.8445C38.9247 34.9978 37.4441 35 35.3333 35V36V37C37.3865 37 39.0289 37.0022 40.3153 36.826C41.6323 36.6456 42.7239 36.2615 43.5867 35.3824L42.873 34.682ZM44.1666 27H43.1666C43.1666 29.1491 43.1645 30.6621 43.0135 31.8069C42.866 32.9248 42.5927 33.54 42.1593 33.9815L42.873 34.682L43.5867 35.3824C44.4469 34.506 44.8204 33.4015 44.9963 32.0685C45.1686 30.7625 45.1666 29.0936 45.1666 27H44.1666ZM44.1666 15.75H43.1666V27H44.1666H45.1666V15.75H44.1666ZM42.873 8.06802L42.1593 8.76849C42.5927 9.21005 42.866 9.82521 43.0135 10.9431C43.1645 12.0879 43.1666 13.6009 43.1666 15.75H44.1666H45.1666C45.1666 13.6564 45.1686 11.9875 44.9963 10.6815C44.8204 9.34852 44.4469 8.24401 43.5867 7.36755L42.873 8.06802ZM35.3333 6.75V7.75C37.4441 7.75 38.9247 7.7522 40.0438 7.9055C41.1322 8.05459 41.7285 8.32953 42.1593 8.76849L42.873 8.06802L43.5867 7.36755C42.7239 6.48849 41.6323 6.10442 40.3153 5.924C39.0289 5.7478 37.3865 5.75 35.3333 5.75V6.75ZM17.6666 6.75V7.75H35.3333V6.75V5.75H17.6666V6.75ZM10.1269 8.06802L10.8405 8.76849C11.2714 8.32953 11.8676 8.05459 12.956 7.9055C14.0751 7.7522 15.5558 7.75 17.6666 7.75V6.75V5.75C15.6133 5.75 13.9709 5.7478 12.6846 5.924C11.3675 6.10442 10.276 6.48849 9.41318 7.36755L10.1269 8.06802ZM8.83325 15.75H9.83325C9.83325 13.6009 9.8353 12.0879 9.98636 10.9431C10.1339 9.82521 10.4072 9.21005 10.8405 8.76849L10.1269 8.06802L9.41318 7.36755C8.55295 8.24401 8.17944 9.34852 8.00355 10.6815C7.8312 11.9875 7.83325 13.6564 7.83325 15.75H8.83325ZM8.83325 41.625H9.83325V15.75H8.83325H7.83325V41.625H8.83325ZM14.3541 36V35C10.7352 35 7.83325 37.9838 7.83325 41.625H8.83325H9.83325C9.83325 39.053 11.8748 37 14.3541 37V36ZM33.1249 16V17C33.6772 17 34.1249 17.4477 34.1249 18H35.1249H36.1249C36.1249 16.3431 34.7818 15 33.1249 15V16ZM19.8749 16V17L33.1249 17V16V15L19.8749 15V16ZM17.8749 18H18.8749C18.8749 17.4477 19.3226 17 19.8749 17V16V15C18.2181 15 16.8749 16.3431 16.8749 18H17.8749ZM19.8749 20V19C19.3226 19 18.8749 18.5523 18.8749 18H17.8749H16.8749C16.8749 19.6569 18.2181 21 19.8749 21V20ZM33.1249 20V19L19.8749 19V20V21L33.1249 21V20ZM35.1249 18L34.1249 18C34.1249 18.5523 33.6772 19 33.1249 19V20V21C34.7818 21 36.1249 19.6569 36.1249 18L35.1249 18ZM24.2916 47.25V46.25H14.3541V47.25V48.25H24.2916V47.25ZM8.83325 41.625H7.83325C7.83325 45.2662 10.7352 48.25 14.3541 48.25V47.25V46.25C11.8748 46.25 9.83325 44.197 9.83325 41.625H8.83325Z" fill="#222222"/>
<path d="M44.1666 47.25H22.0833" stroke="#222222" stroke-width="2" stroke-linecap="round"/>
</svg>
